<svg xmlns="http://www.w3.org/2000/svg" width="381" height="312" viewBox="0 0 381 312">
  <g fill="none" fill-rule="evenodd">
    <path fill="#1B1822" d="M211.624461,121.291838 C205.968392,112.399669 194.998269,107.613637 189.862986,107.613637 C184.727702,107.613637 178.491348,111.358277 171.153921,118.847559 C163.816495,126.336841 158.936331,155.33674 151.192007,167.079178 C137.212457,188.275864 112.859333,208 85.155667,208 C55.0921117,208 30.0569156,189.823095 15.7770141,161.510683 C1.49711263,133.198271 -6.42951566,88.2775216 6.62517799,74.5596997 C20.9626318,59.4939583 62.454546,48.6627759 85.155667,48.6627759 C104.312991,48.6627759 130.534315,54.6462461 147.63563,65.5044463 C166.352518,74.1381393 180.428303,78.4549859 189.862986,78.4549859 C199.679458,78.4549859 214.520254,73.7816935 234.385371,64.4351089 C251.487,54.2540669 276.606863,48.6627759 295.125726,48.6627759 C317.826847,48.6627759 359.318761,59.4939583 373.656215,74.5596997 C386.710908,88.2775216 379.704192,135.68291 364.504378,161.510683 C349.304565,187.338457 325.189281,208 295.125726,208 C267.422059,208 243.068936,188.275864 229.089386,167.079178 C221.364949,155.366894 217.280529,130.184006 211.624461,121.291838 Z M16.4266216,98.5197942 C16.4266216,188.074454 65.4271388,192.563472 83.662431,192.563472 C101.897723,192.563472 119.462002,186.940326 132.869813,165.616383 C146.277623,144.29244 156.445725,117.890469 150.711216,94.8280471 C144.976707,71.7656251 122.005152,67.6876677 89.9056465,65.9194877 C57.8061406,64.1513076 17.3213809,75.0708103 16.4266216,98.5197942 Z M229.255628,98.5197942 C229.255628,188.074454 278.256145,192.563472 296.491437,192.563472 C314.72673,192.563472 332.291009,186.940326 345.698819,165.616383 C359.10663,144.29244 369.274732,117.890469 363.540223,94.8280471 C357.805714,71.7656251 334.834159,67.6876677 302.734653,65.9194877 C270.635147,64.1513076 230.150387,75.0708103 229.255628,98.5197942 Z"/>
    <g fill="#1B1822" transform="translate(4)">
      <path d="M16.2846178,4.41497208 C33.8903015,1.47165736 51.5828008,7.18326339e-16 69.3621154,0 C90.2789277,0 111.289111,1.5827821 132.392665,4.74834629 L132.392665,4.74834445 C141.938293,6.18020264 149,14.3801805 149,24.032601 L149,28.3596001 C149,38.1045994 141.100117,46.0044822 131.355118,46.0044822 C130.526609,46.0044822 129.699128,45.9461288 128.878819,45.829855 C108.956627,43.0060031 89.1177252,41.5940802 69.3621154,41.5940802 C52.8068165,41.5940802 36.3267908,42.8700803 19.9220385,45.4220806 L19.9220405,45.4220938 C10.4986855,46.8880352 1.67116654,40.4372768 0.205225163,31.0139218 C0.0686122507,30.1357475 -6.38400074e-14,29.2483369 -6.39488462e-14,28.3596001 L3.26513529e-07,23.6480505 C3.26513528e-07,14.1193681 6.88636661,5.98616984 16.2846178,4.41497208 Z"/>
      <path d="M237.284618,4.41497208 C254.890302,1.47165736 272.582801,7.18326339e-16 290.362115,0 C311.278928,0 332.289111,1.5827821 353.392665,4.74834629 L353.392665,4.74834445 C362.938293,6.18020264 370,14.3801805 370,24.032601 L370,28.3596001 C370,38.1045994 362.100117,46.0044822 352.355118,46.0044822 C351.526609,46.0044822 350.699128,45.9461288 349.878819,45.829855 C329.956627,43.0060031 310.117725,41.5940802 290.362115,41.5940802 C273.806816,41.5940802 257.326791,42.8700803 240.922038,45.4220806 L240.922041,45.4220938 C231.498685,46.8880352 222.671167,40.4372768 221.205225,31.0139218 C221.068612,30.1357475 221,29.2483369 221,28.3596001 L221,23.6480505 C221,14.1193681 227.886367,5.98616984 237.284618,4.41497208 Z" transform="matrix(-1 0 0 1 591 0)"/>
    </g>
    <g transform="translate(76 115)">
      <path fill="#1B1822" d="M16.7523981,147.740981 C48.3284651,143.246994 78.8592982,141 108.344897,141 C141.687559,141 173.991622,143.232728 205.257087,147.698185 L205.257087,147.698183 C214.864022,149.070283 222.000001,157.297866 222.000001,167.00229 L221.999999,176.849025 C221.999999,187.618577 213.269552,196.349023 202.500001,196.349023 C201.15479,196.349023 199.81319,196.209825 198.496635,195.933652 C169.340665,189.817629 139.290085,186.759617 108.344897,186.759617 C80.973121,186.759617 52.7006045,189.838587 23.5273478,195.996526 L23.5273472,195.996524 C12.9899863,198.220767 2.64466189,191.481654 0.420418423,180.944293 C0.140899346,179.62007 6.38574343e-07,178.270346 6.38574342e-07,176.916944 L-2.81124457e-09,167.046439 C-2.81124576e-09,157.338376 7.14118841,149.108873 16.7523981,147.740981 Z" transform="matrix(-1 0 0 1 222 0)"/>
      <path fill="#FFBEB2" d="M123.091031,171.64091 C121.503934,172.530673 119.754337,173 117.831423,173 C116.305127,173 114.864177,172.965003 113.5,172.89679 C112.135823,172.965003 110.694873,173 109.168577,173 C107.245663,173 105.496066,172.530673 103.908969,171.64091 C92.5909891,169.001995 87.9835124,162.80162 78.0304705,155.54277 C69.767208,149.516293 36,146.347508 36,128.094743 C36,115.926233 44.8198177,104.434907 62.4594532,93.6207641 C66.9182482,77.5643463 71.2170438,65.3777331 75.3558402,57.0609244 C81.5640346,44.5857113 87.9243477,42.2248839 91.445166,35.3746917 C102.870425,13.1454212 99.1367065,0 113.459431,0 C113.472943,2.15353089e-18 113.486466,0.000153963673 113.5,0.000461600527 C113.513534,0.000153963673 113.527057,2.15353089e-18 113.540569,0 C127.863294,0 124.129575,13.1454212 135.554834,35.3746917 C139.075652,42.2248839 145.435965,44.5857113 151.64416,57.0609244 C155.782956,65.3777331 160.081752,77.5643463 164.540547,93.6207641 C182.180182,104.434907 191,115.926233 191,128.094743 C191,146.347508 157.232792,149.516293 148.96953,155.54277 C139.016488,162.80162 134.409011,169.001995 123.091031,171.64091 Z"/>
    </g>
  </g>
</svg>
